<?xml version="1.0" encoding="utf-8"?>
<!-- Generator: Adobe Illustrator 16.0.0, SVG Export Plug-In . SVG Version: 6.00 Build 0)  -->
<!DOCTYPE svg PUBLIC "-//W3C//DTD SVG 1.1//EN" "http://www.w3.org/Graphics/SVG/1.1/DTD/svg11.dtd">
<svg version="1.1" id="레이어_1" xmlns="http://www.w3.org/2000/svg" xmlns:xlink="http://www.w3.org/1999/xlink" x="0px"
	 y="0px" viewBox="0 0 40 40" enable-background="new 0 0 40 40" xml:space="preserve">
<path fill="#363636" d="M20,0C8.954,0,0,8.954,0,20c0,11.047,8.954,20,20,20c11.047,0,20-8.953,20-20C40,8.954,31.047,0,20,0z
	 M26,12c0,0-0.08,0-1.799,0S22,13.229,22,13.229V17h4.667l-0.834,5H22v11h-5V22h-4v-5h4v-3.823C18,7.335,23.125,7,23.125,7H26V12z"
	/>
</svg>
