<?xml version="1.0" encoding="utf-8"?>
<!-- Generator: Adobe Illustrator 16.0.0, SVG Export Plug-In . SVG Version: 6.00 Build 0)  -->
<!DOCTYPE svg PUBLIC "-//W3C//DTD SVG 1.1//EN" "http://www.w3.org/Graphics/SVG/1.1/DTD/svg11.dtd">
<svg version="1.1" id="레이어_1" xmlns="http://www.w3.org/2000/svg" xmlns:xlink="http://www.w3.org/1999/xlink" x="0px"
	 y="0px" width="16px" height="16px" viewBox="0 0 16 16" enable-background="new 0 0 16 16" xml:space="preserve">
<rect x="14" y="0" fill="#363636" width="0" height="0"/>
<path fill="#363636" d="M14,0h-1.967h-0.066H8.034H7.966H4.034H3.966H2L0,5h0.033C0.193,6,1.01,6.667,2,6.667
	C2.989,6.667,3.807,6,3.967,5h0.066C4.193,6,5.01,6.667,6,6.667S7.807,6,7.966,5h0.067C8.193,6,9.01,6.667,10,6.667
	S11.807,6,11.967,5h0.066C12.193,6,13.01,6.667,14,6.667S15.807,6,15.967,5H16L14,0z"/>
<rect y="14" fill="#363636" width="16" height="2"/>
<rect x="2" y="4" fill="#363636" width="1" height="10"/>
<rect x="13" y="5" fill="#363636" width="1" height="10"/>
<rect x="9" y="9" fill="#363636" width="0" height="0"/>
<path fill="#363636" d="M11,15c0,1.657-1.343,0-3,0l0,0c-1.657,0-3,1.657-3,0v-4c0-1.657,1.343-3,3-3l0,0c1.657,0,3,1.343,3,3V15z"
	/>
</svg>
