<?xml version="1.0" encoding="utf-8"?>
<!-- Generator: Adobe Illustrator 16.0.0, SVG Export Plug-In . SVG Version: 6.00 Build 0)  -->
<!DOCTYPE svg PUBLIC "-//W3C//DTD SVG 1.1//EN" "http://www.w3.org/Graphics/SVG/1.1/DTD/svg11.dtd">
<svg version="1.1" id="레이어_1" xmlns="http://www.w3.org/2000/svg" xmlns:xlink="http://www.w3.org/1999/xlink" x="0px"
	 y="0px" viewBox="0 0 40 40" enable-background="new 0 0 40 40" xml:space="preserve">
<g>
	<polygon fill="#363636" points="17,23.377 23.599,20.005 17,16.676 	"/>
	<path fill="#363636" d="M20,0C8.954,0,0,8.954,0,20c0,11.047,8.954,20,20,20c11.047,0,20-8.953,20-20C40,8.954,31.047,0,20,0z
		 M32.008,26.326c-0.461,1.483-1.889,1.958-1.889,1.958c-1.54,0.458-8.269,0.483-10.09,0.481c-1.821,0.002-8.55-0.019-10.089-0.475
		c0,0-1.427-0.481-1.891-1.966c-0.492-1.636-0.583-3.942-0.583-6.351c0-2.408,0.091-4.702,0.583-6.338
		c0.463-1.483,1.891-1.951,1.891-1.951c1.539-0.456,8.268-0.479,10.089-0.477c1.822-0.002,8.55,0.021,10.09,0.477
		c0,0,1.428,0.467,1.889,1.951c0.494,1.637,0.583,3.93,0.583,6.338C32.591,22.383,32.502,24.689,32.008,26.326z"/>
</g>
</svg>
